<svg xmlns="http://www.w3.org/2000/svg" viewBox="0 0 216 128" width="216" height="128"
    style="width: 100%; height: 100%; transform: translate3d(0px, 0px, 0px);"
    preserveAspectRatio="xMidYMid meet">
    <defs>
        <clipPath id="__lottie_element_2">
            <rect width="216" height="128" x="0" y="0"></rect>
        </clipPath>
        <clipPath id="__lottie_element_4">
            <path d="M0,0 L216,0 L216,128 L0,128z"></path>
        </clipPath>
    </defs>
    <g clip-path="url(#__lottie_element_2)">
        <g style="display: block;" transform="matrix(1,0,0,1,-0.25,42.75)"
            opacity="0.9991743619902644">
            <g opacity="1" transform="matrix(1,0,0,1,108.25,28.25)">
                <path fill="rgb(236,236,236)" fill-opacity="1"
                    d=" M75,-28 C78.86599731445312,-28 82,-24.865999221801758 82,-21 C82,-17.134000778198242 78.86599731445312,-14 75,-14 C75,-14 97,-14 97,-14 C100.86599731445312,-14 104,-10.866000175476074 104,-7 C104,-3.134000062942505 100.86599731445312,0 97,0 C97,0 78,0 78,0 C74.13400268554688,0 71,3.134000062942505 71,7 C71,10.866000175476074 74.13400268554688,14 78,14 C78,14 84,14 84,14 C87.86599731445312,14 91,17.134000778198242 91,21 C91,24.865999221801758 87.86599731445312,28 84,28 C84,28 32,28 32,28 C31.485000610351562,28 30.982999801635742,27.944000244140625 30.5,27.839000701904297 C30.017000198364258,27.944000244140625 29.514999389648438,28 29,28 C29,28 -62,28 -62,28 C-65.86599731445312,28 -69,24.865999221801758 -69,21 C-69,17.134000778198242 -65.86599731445312,14 -62,14 C-62,14 -101,14 -101,14 C-104.86599731445312,14 -108,10.866000175476074 -108,7 C-108,3.134000062942505 -104.86599731445312,0 -101,0 C-101,0 -61,0 -61,0 C-57.13399887084961,0 -54,-3.134000062942505 -54,-7 C-54,-10.866000175476074 -57.13399887084961,-14 -61,-14 C-61,-14 -86,-14 -86,-14 C-89.86599731445312,-14 -93,-17.134000778198242 -93,-21 C-93,-24.865999221801758 -89.86599731445312,-28 -86,-28 C-86,-28 75,-28 75,-28z M101,14 C104.86599731445312,14 108,17.134000778198242 108,21 C108,24.865999221801758 104.86599731445312,28 101,28 C97.13400268554688,28 94,24.865999221801758 94,21 C94,17.134000778198242 97.13400268554688,14 101,14z"></path>
            </g>
        </g>
        <g style="display: block;"
            transform="matrix(0.044029366225004196,0.9990302324295044,-0.9990302324295044,0.044029366225004196,180.58975219726562,5.341641902923584)"
            opacity="1">
            <g opacity="1" transform="matrix(1,0,0,1,4.978000164031982,5.228000164031982)">
                <path fill="rgb(217,217,217)" fill-opacity="1"
                    d=" M3.621000051498413,1.3580000400543213 C3.621000051498413,1.3580000400543213 -3.621000051498413,1.3580000400543213 -3.621000051498413,1.3580000400543213 C-4.369999885559082,1.3580000400543213 -4.978000164031982,0.7519999742507935 -4.978000164031982,0.0010000000474974513 C-4.978000164031982,-0.746999979019165 -4.369999885559082,-1.3569999933242798 -3.621000051498413,-1.3569999933242798 C-3.621000051498413,-1.3569999933242798 3.621000051498413,-1.3569999933242798 3.621000051498413,-1.3569999933242798 C4.368000030517578,-1.3569999933242798 4.978000164031982,-0.746999979019165 4.978000164031982,0.0010000000474974513 C4.978000164031982,0.7519999742507935 4.368000030517578,1.3580000400543213 3.621000051498413,1.3580000400543213z"></path>
            </g>
            <g opacity="1" transform="matrix(1,0,0,1,4.9770002365112305,5.228000164031982)">
                <path fill="rgb(217,217,217)" fill-opacity="1"
                    d=" M0,4.978000164031982 C-0.7490000128746033,4.978000164031982 -1.3569999933242798,4.372000217437744 -1.3569999933242798,3.619999885559082 C-1.3569999933242798,3.619999885559082 -1.3569999933242798,-3.619999885559082 -1.3569999933242798,-3.619999885559082 C-1.3569999933242798,-4.368000030517578 -0.7490000128746033,-4.978000164031982 0,-4.978000164031982 C0.7480000257492065,-4.978000164031982 1.3569999933242798,-4.368000030517578 1.3569999933242798,-3.619999885559082 C1.3569999933242798,-3.619999885559082 1.3569999933242798,3.619999885559082 1.3569999933242798,3.619999885559082 C1.3569999933242798,4.372000217437744 0.7480000257492065,4.978000164031982 0,4.978000164031982z"></path>
            </g>
        </g>
        <g style="display: block;"
            transform="matrix(0.044029366225004196,0.9990302324295044,-0.9990302324295044,0.044029366225004196,167.40675354003906,19.695884704589844)"
            opacity="1">
            <g opacity="1" transform="matrix(1,0,0,1,5.228000164031982,5.228000164031982)">
                <path fill="rgb(217,217,217)" fill-opacity="1"
                    d=" M3.619999885559082,1.3569999933242798 C3.619999885559082,1.3569999933242798 -3.619999885559082,1.3569999933242798 -3.619999885559082,1.3569999933242798 C-4.370999813079834,1.3569999933242798 -4.978000164031982,0.7490000128746033 -4.978000164031982,-0.0010000000474974513 C-4.978000164031982,-0.75 -4.370999813079834,-1.3569999933242798 -3.619999885559082,-1.3569999933242798 C-3.619999885559082,-1.3569999933242798 3.619999885559082,-1.3569999933242798 3.619999885559082,-1.3569999933242798 C4.369999885559082,-1.3569999933242798 4.978000164031982,-0.75 4.978000164031982,-0.0010000000474974513 C4.978000164031982,0.7490000128746033 4.369999885559082,1.3569999933242798 3.619999885559082,1.3569999933242798z"></path>
            </g>
            <g opacity="1" transform="matrix(1,0,0,1,5.228000164031982,5.228000164031982)">
                <path fill="rgb(217,217,217)" fill-opacity="1"
                    d=" M0,4.978000164031982 C-0.7509999871253967,4.978000164031982 -1.3580000400543213,4.369999885559082 -1.3580000400543213,3.619999885559082 C-1.3580000400543213,3.619999885559082 -1.3580000400543213,-3.619999885559082 -1.3580000400543213,-3.619999885559082 C-1.3580000400543213,-4.36899995803833 -0.7509999871253967,-4.978000164031982 0,-4.978000164031982 C0.7490000128746033,-4.978000164031982 1.3580000400543213,-4.36899995803833 1.3580000400543213,-3.619999885559082 C1.3580000400543213,-3.619999885559082 1.3580000400543213,3.619999885559082 1.3580000400543213,3.619999885559082 C1.3580000400543213,4.369999885559082 0.7490000128746033,4.978000164031982 0,4.978000164031982z"></path>
            </g>
        </g>
        <g style="display: block;"
            transform="matrix(0.044029366225004196,0.9990302324295044,-0.9990302324295044,0.044029366225004196,181.58975219726562,28.118640899658203)"
            opacity="1">
            <g opacity="1" transform="matrix(1,0,0,1,4.978000164031982,5.228000164031982)">
                <path fill="rgb(217,217,217)" fill-opacity="1"
                    d=" M3.621000051498413,1.3569999933242798 C3.621000051498413,1.3569999933242798 -3.621000051498413,1.3569999933242798 -3.621000051498413,1.3569999933242798 C-4.369999885559082,1.3569999933242798 -4.978000164031982,0.7490000128746033 -4.978000164031982,-0.0010000000474974513 C-4.978000164031982,-0.7519999742507935 -4.369999885559082,-1.3569999933242798 -3.621000051498413,-1.3569999933242798 C-3.621000051498413,-1.3569999933242798 3.621000051498413,-1.3569999933242798 3.621000051498413,-1.3569999933242798 C4.368000030517578,-1.3569999933242798 4.978000164031982,-0.7519999742507935 4.978000164031982,-0.0010000000474974513 C4.978000164031982,0.7490000128746033 4.368000030517578,1.3569999933242798 3.621000051498413,1.3569999933242798z"></path>
            </g>
            <g opacity="1" transform="matrix(1,0,0,1,4.9770002365112305,5.228000164031982)">
                <path fill="rgb(217,217,217)" fill-opacity="1"
                    d=" M0,4.978000164031982 C-0.7490000128746033,4.978000164031982 -1.3569999933242798,4.369999885559082 -1.3569999933242798,3.619999885559082 C-1.3569999933242798,3.619999885559082 -1.3569999933242798,-3.619999885559082 -1.3569999933242798,-3.619999885559082 C-1.3569999933242798,-4.370999813079834 -0.7490000128746033,-4.978000164031982 0,-4.978000164031982 C0.7480000257492065,-4.978000164031982 1.3569999933242798,-4.370999813079834 1.3569999933242798,-3.619999885559082 C1.3569999933242798,-3.619999885559082 1.3569999933242798,3.619999885559082 1.3569999933242798,3.619999885559082 C1.3569999933242798,4.369999885559082 0.7480000257492065,4.978000164031982 0,4.978000164031982z"></path>
            </g>
        </g>
        <g clip-path="url(#__lottie_element_4)" style="display: block;"
            transform="matrix(1,-0.00000937332515604794,0.00000937332515604794,1,-0.00060272216796875,0.001010894775390625)"
            opacity="1">
            <g style="display: block;"
                transform="matrix(1,0,0,1,63.75100326538086,7.750999450683594)" opacity="1">
                <g opacity="1" transform="matrix(1,0,0,1,45.04999923706055,55.94300079345703)">
                    <path fill="rgb(247,247,247)" fill-opacity="1"
                        d=" M38.012001037597656,-54.270999908447266 C38.012001037597656,-54.270999908447266 -38.012001037597656,-54.270999908447266 -38.012001037597656,-54.270999908447266 C-41.0099983215332,-54.270999908447266 -43.44200134277344,-51.840999603271484 -43.44200134277344,-48.84199905395508 C-43.44200134277344,-48.84199905395508 -43.44200134277344,48.84000015258789 -43.44200134277344,48.84000015258789 C-43.44200134277344,51.84000015258789 -41.0099983215332,54.270999908447266 -38.012001037597656,54.270999908447266 C-38.012001037597656,54.270999908447266 38.012001037597656,54.270999908447266 38.012001037597656,54.270999908447266 C41.01100158691406,54.270999908447266 43.44200134277344,51.84000015258789 43.44200134277344,48.84000015258789 C43.44200134277344,48.84000015258789 43.44200134277344,-48.84199905395508 43.44200134277344,-48.84199905395508 C43.44200134277344,-51.840999603271484 41.01100158691406,-54.270999908447266 38.012001037597656,-54.270999908447266z"></path>
                </g>
                <g opacity="1" transform="matrix(1,0,0,1,40.525001525878906,51.382999420166016)">
                    <path fill="rgb(255,255,255)" fill-opacity="1"
                        d=" M38.91699981689453,-49.775001525878906 C38.91699981689453,-49.775001525878906 -33.48699951171875,-49.775001525878906 -33.48699951171875,-49.775001525878906 C-36.48500061035156,-49.775001525878906 -38.91699981689453,-47.34199905395508 -38.91699981689453,-44.345001220703125 C-38.91699981689453,-44.345001220703125 -38.91699981689453,49.775001525878906 -38.91699981689453,49.775001525878906 C-38.91699981689453,49.775001525878906 33.486000061035156,49.775001525878906 33.486000061035156,49.775001525878906 C36.486000061035156,49.775001525878906 38.91699981689453,47.34400177001953 38.91699981689453,44.34400177001953 C38.91699981689453,44.34400177001953 38.91699981689453,-49.775001525878906 38.91699981689453,-49.775001525878906z"></path>
                </g>
                <g opacity="1" transform="matrix(1,0,0,1,45.04999923706055,55.9109992980957)">
                    <path fill="rgb(217,217,217)" fill-opacity="1"
                        d=" M-38.012001037597656,-52.94499969482422 C-40.25699996948242,-52.94499969482422 -42.084999084472656,-51.1150016784668 -42.084999084472656,-48.87200164794922 C-42.084999084472656,-48.87200164794922 -42.084999084472656,48.87200164794922 -42.084999084472656,48.87200164794922 C-42.084999084472656,51.11899948120117 -40.25699996948242,52.94499969482422 -38.012001037597656,52.94499969482422 C-38.012001037597656,52.94499969482422 38.012001037597656,52.94499969482422 38.012001037597656,52.94499969482422 C40.25699996948242,52.94499969482422 42.084999084472656,51.11899948120117 42.084999084472656,48.87200164794922 C42.084999084472656,48.87200164794922 42.084999084472656,-48.87200164794922 42.084999084472656,-48.87200164794922 C42.084999084472656,-51.1150016784668 40.25699996948242,-52.94499969482422 38.012001037597656,-52.94499969482422 C38.012001037597656,-52.94499969482422 -38.012001037597656,-52.94499969482422 -38.012001037597656,-52.94499969482422z M38.012001037597656,55.65999984741211 C38.012001037597656,55.65999984741211 -38.012001037597656,55.65999984741211 -38.012001037597656,55.65999984741211 C-41.75400161743164,55.65999984741211 -44.79999923706055,52.61600112915039 -44.79999923706055,48.87200164794922 C-44.79999923706055,48.87200164794922 -44.79999923706055,-48.87200164794922 -44.79999923706055,-48.87200164794922 C-44.79999923706055,-52.61199951171875 -41.75400161743164,-55.65999984741211 -38.012001037597656,-55.65999984741211 C-38.012001037597656,-55.65999984741211 38.012001037597656,-55.65999984741211 38.012001037597656,-55.65999984741211 C41.75400161743164,-55.65999984741211 44.79999923706055,-52.61199951171875 44.79999923706055,-48.87200164794922 C44.79999923706055,-48.87200164794922 44.79999923706055,48.87200164794922 44.79999923706055,48.87200164794922 C44.79999923706055,52.61600112915039 41.75400161743164,55.65999984741211 38.012001037597656,55.65999984741211z"></path>
                </g>
                <g opacity="1" transform="matrix(1,0,0,1,46.86000061035156,8.010000228881836)">
                    <path fill="rgb(247,247,247)" fill-opacity="1"
                        d=" M23.5310001373291,-6.335999965667725 C23.5310001373291,-6.335999965667725 -23.5310001373291,-6.335999965667725 -23.5310001373291,-6.335999965667725 C-23.5310001373291,-6.335999965667725 -23.5310001373291,0.9049999713897705 -23.5310001373291,0.9049999713897705 C-23.5310001373291,3.9049999713897705 -21.099000930786133,6.335999965667725 -18.10099983215332,6.335999965667725 C-18.10099983215332,6.335999965667725 18.10099983215332,6.335999965667725 18.10099983215332,6.335999965667725 C21.100000381469727,6.335999965667725 23.5310001373291,3.9049999713897705 23.5310001373291,0.9049999713897705 C23.5310001373291,0.9049999713897705 23.5310001373291,-6.335999965667725 23.5310001373291,-6.335999965667725z"></path>
                </g>
                <g opacity="1" transform="matrix(1,0,0,1,41.43000030517578,8.010000228881836)">
                    <path fill="rgb(255,255,255)" fill-opacity="1"
                        d=" M18.10099983215332,-6.335999965667725 C18.10099983215332,-6.335999965667725 -18.10099983215332,-6.335999965667725 -18.10099983215332,-6.335999965667725 C-18.10099983215332,-6.335999965667725 -18.10099983215332,0.9049999713897705 -18.10099983215332,0.9049999713897705 C-18.10099983215332,3.9049999713897705 -15.670000076293945,6.335999965667725 -12.670999526977539,6.335999965667725 C-12.670999526977539,6.335999965667725 10.859999656677246,6.335999965667725 10.859999656677246,6.335999965667725 C14.859000205993652,6.335999965667725 18.10099983215332,3.0950000286102295 18.10099983215332,-0.906000018119812 C18.10099983215332,-0.906000018119812 18.10099983215332,-6.335999965667725 18.10099983215332,-6.335999965667725z"></path>
                </g>
                <g opacity="1" transform="matrix(1,0,0,1,46.86000061035156,8.010000228881836)">
                    <path fill="rgb(217,217,217)" fill-opacity="1"
                        d=" M-22.173999786376953,-4.978000164031982 C-22.173999786376953,-4.978000164031982 -22.173999786376953,0.9049999713897705 -22.173999786376953,0.9049999713897705 C-22.173999786376953,3.1510000228881836 -20.34600067138672,4.978000164031982 -18.10099983215332,4.978000164031982 C-18.10099983215332,4.978000164031982 18.10099983215332,4.978000164031982 18.10099983215332,4.978000164031982 C20.34600067138672,4.978000164031982 22.173999786376953,3.1510000228881836 22.173999786376953,0.9049999713897705 C22.173999786376953,0.9049999713897705 22.173999786376953,-4.978000164031982 22.173999786376953,-4.978000164031982 C22.173999786376953,-4.978000164031982 -22.173999786376953,-4.978000164031982 -22.173999786376953,-4.978000164031982z M18.10099983215332,7.692999839782715 C18.10099983215332,7.692999839782715 -18.10099983215332,7.692999839782715 -18.10099983215332,7.692999839782715 C-21.841999053955078,7.692999839782715 -24.888999938964844,4.6479997634887695 -24.888999938964844,0.9049999713897705 C-24.888999938964844,0.9049999713897705 -24.888999938964844,-6.335000038146973 -24.888999938964844,-6.335000038146973 C-24.888999938964844,-7.083000183105469 -24.281999588012695,-7.692999839782715 -23.5310001373291,-7.692999839782715 C-23.5310001373291,-7.692999839782715 23.5310001373291,-7.692999839782715 23.5310001373291,-7.692999839782715 C24.2810001373291,-7.692999839782715 24.888999938964844,-7.083000183105469 24.888999938964844,-6.335000038146973 C24.888999938964844,-6.335000038146973 24.888999938964844,0.9049999713897705 24.888999938964844,0.9049999713897705 C24.888999938964844,4.6479997634887695 21.841999053955078,7.692999839782715 18.10099983215332,7.692999839782715z"></path>
                </g>
                <g opacity="1" transform="matrix(1,0,0,1,17.908000946044922,30.569000244140625)">
                    <path fill="rgb(247,247,247)" fill-opacity="1"
                        d=" M-1.784999966621399,5.439000129699707 C-1.784999966621399,5.439000129699707 1.8350000381469727,5.421000003814697 1.8350000381469727,5.421000003814697 C3.8329999446868896,5.4120001792907715 5.448999881744385,3.7860000133514404 5.438000202178955,1.784999966621399 C5.438000202178955,1.784999966621399 5.419000148773193,-1.8350000381469727 5.419000148773193,-1.8350000381469727 C5.4120001792907715,-3.8329999446868896 3.7839999198913574,-5.447999954223633 1.7860000133514404,-5.439000129699707 C1.7860000133514404,-5.439000129699707 -1.8350000381469727,-5.421999931335449 -1.8350000381469727,-5.421999931335449 C-3.8350000381469727,-5.413000106811523 -5.447999954223633,-3.7829999923706055 -5.439000129699707,-1.7829999923706055 C-5.439000129699707,-1.7829999923706055 -5.422999858856201,1.8370000123977661 -5.422999858856201,1.8370000123977661 C-5.413000106811523,3.8350000381469727 -3.7850000858306885,5.447999954223633 -1.784999966621399,5.439000129699707z"></path>
                </g>
                <g opacity="1" transform="matrix(1,0,0,1,17.906999588012695,30.56999969482422)">
                    <path fill="rgb(217,217,217)" fill-opacity="1"
                        d=" M1.8049999475479126,-4.079999923706055 C1.8049999475479126,-4.079999923706055 1.7920000553131104,-4.079999923706055 1.7920000553131104,-4.079999923706055 C1.7920000553131104,-4.079999923706055 -1.8320000171661377,-4.065999984741211 -1.8320000171661377,-4.065999984741211 C-3.0759999752044678,-4.058000087738037 -4.086999893188477,-3.0380001068115234 -4.081999778747559,-1.7890000343322754 C-4.081999778747559,-1.7890000343322754 -4.064000129699707,1.8300000429153442 -4.064000129699707,1.8300000429153442 C-4.059999942779541,2.434000015258789 -3.822999954223633,3.000999927520752 -3.3940000534057617,3.4260001182556152 C-2.9649999141693115,3.8540000915527344 -2.381999969482422,4.10699987411499 -1.7899999618530273,4.079999923706055 C-1.7899999618530273,4.079999923706055 -1.7879999876022339,4.079999923706055 -1.7879999876022339,4.079999923706055 C-1.7879999876022339,4.079999923706055 1.8329999446868896,4.065000057220459 1.8329999446868896,4.065000057220459 C3.078000068664551,4.058000087738037 4.0879998207092285,3.0390000343322754 4.083000183105469,1.7899999618530273 C4.083000183105469,1.7899999618530273 4.064000129699707,-1.8279999494552612 4.064000129699707,-1.8279999494552612 C4.058000087738037,-2.433000087738037 3.8239998817443848,-3.000999927520752 3.3949999809265137,-3.427000045776367 C2.9690001010894775,-3.8480000495910645 2.4049999713897705,-4.079999923706055 1.8049999475479126,-4.079999923706055z M-1.8029999732971191,6.795000076293945 C-3.124000072479248,6.795000076293945 -4.366000175476074,6.285999774932861 -5.306000232696533,5.355999946594238 C-6.249000072479248,4.420000076293945 -6.77400016784668,3.1730000972747803 -6.7789998054504395,1.840999960899353 C-6.7789998054504395,1.840999960899353 -6.796999931335449,-1.777999997138977 -6.796999931335449,-1.777999997138977 C-6.809999942779541,-4.519999980926514 -4.584000110626221,-6.765999794006348 -1.8420000076293945,-6.781000137329102 C-1.8420000076293945,-6.781000137329102 1.7790000438690186,-6.795000076293945 1.7790000438690186,-6.795000076293945 C3.0769999027252197,-6.769999980926514 4.359000205993652,-6.291999816894531 5.302999973297119,-5.355999946594238 C6.25,-4.419000148773193 6.7729997634887695,-3.1710000038146973 6.7789998054504395,-1.843000054359436 C6.7789998054504395,-1.843000054359436 6.797999858856201,1.7769999504089355 6.797999858856201,1.7769999504089355 C6.809999942779541,4.5229997634887695 4.586999893188477,6.765999794006348 1.8420000076293945,6.78000020980835 C1.8420000076293945,6.78000020980835 -1.777999997138977,6.795000076293945 -1.777999997138977,6.795000076293945 C-1.777999997138977,6.795000076293945 -1.8029999732971191,6.795000076293945 -1.8029999732971191,6.795000076293945z"></path>
                </g>
                <g opacity="1" transform="matrix(1,0,0,1,17.908000946044922,52.292999267578125)">
                    <path fill="rgb(247,247,247)" fill-opacity="1"
                        d=" M-1.784999966621399,5.438000202178955 C-1.784999966621399,5.438000202178955 1.8350000381469727,5.422999858856201 1.8350000381469727,5.422999858856201 C3.8329999446868896,5.4120001792907715 5.448999881744385,3.7839999198913574 5.438000202178955,1.7829999923706055 C5.438000202178955,1.7829999923706055 5.419000148773193,-1.8370000123977661 5.419000148773193,-1.8370000123977661 C5.4120001792907715,-3.8350000381469727 3.7839999198913574,-5.449999809265137 1.7860000133514404,-5.439000129699707 C1.7860000133514404,-5.439000129699707 -1.8350000381469727,-5.422999858856201 -1.8350000381469727,-5.422999858856201 C-3.8350000381469727,-5.4120001792907715 -5.447999954223633,-3.7850000858306885 -5.439000129699707,-1.784000039100647 C-5.439000129699707,-1.784000039100647 -5.422999858856201,1.8370000123977661 -5.422999858856201,1.8370000123977661 C-5.413000106811523,3.8350000381469727 -3.7850000858306885,5.448999881744385 -1.784999966621399,5.438000202178955z"></path>
                </g>
                <g opacity="1" transform="matrix(1,0,0,1,17.902999877929688,52.29399871826172)">
                    <path fill="rgb(217,217,217)" fill-opacity="1"
                        d=" M1.8049999475479126,-4.081999778747559 C1.8049999475479126,-4.081999778747559 1.7920000553131104,-4.081999778747559 1.7920000553131104,-4.081999778747559 C1.7920000553131104,-4.081999778747559 -1.8240000009536743,-4.064000129699707 -1.8240000009536743,-4.064000129699707 C-2.428999900817871,-4.061999797821045 -2.994999885559082,-3.822999954223633 -3.4230000972747803,-3.3940000534057617 C-3.8480000495910645,-2.9649999141693115 -4.083000183105469,-2.3949999809265137 -4.078000068664551,-1.7920000553131104 C-4.078000068664551,-1.7920000553131104 -4.059999942779541,1.8279999494552612 -4.059999942779541,1.8279999494552612 C-4.056000232696533,2.433000087738037 -3.819000005722046,2.997999906539917 -3.390000104904175,3.424999952316284 C-2.9630000591278076,3.8480000495910645 -2.3959999084472656,4.081999778747559 -1.7970000505447388,4.081999778747559 C-1.7970000505447388,4.081999778747559 -1.7860000133514404,4.081999778747559 -1.7860000133514404,4.081999778747559 C-1.7860000133514404,4.081999778747559 1.8339999914169312,4.064000129699707 1.8339999914169312,4.064000129699707 C2.438999891281128,4.059999942779541 3.005000114440918,3.822999954223633 3.428999900817871,3.3940000534057617 C3.8559999465942383,2.9649999141693115 4.089000225067139,2.3929998874664307 4.085999965667725,1.7890000343322754 C4.085999965667725,1.7890000343322754 4.067999839782715,-1.8300000429153442 4.067999839782715,-1.8300000429153442 C4.061999797821045,-2.434000015258789 3.8269999027252197,-3.000999927520752 3.3980000019073486,-3.4260001182556152 C2.9730000495910645,-3.8499999046325684 2.4059998989105225,-4.081999778747559 1.8049999475479126,-4.081999778747559z M-1.7970000505447388,6.796999931335449 C-3.118000030517578,6.796999931335449 -4.360000133514404,6.2870001792907715 -5.301000118255615,5.354000091552734 C-6.24399995803833,4.416999816894531 -6.769000053405762,3.1710000038146973 -6.775000095367432,1.8389999866485596 C-6.775000095367432,1.8389999866485596 -6.793000221252441,-1.7790000438690186 -6.793000221252441,-1.7790000438690186 C-6.806000232696533,-4.5229997634887695 -4.580999851226807,-6.765999794006348 -1.8370000123977661,-6.7789998054504395 C-1.8370000123977661,-6.7789998054504395 1.781000018119812,-6.796999931335449 1.781000018119812,-6.796999931335449 C1.781000018119812,-6.796999931335449 1.8049999475479126,-6.796999931335449 1.8049999475479126,-6.796999931335449 C3.125999927520752,-6.796999931335449 4.369999885559082,-6.285999774932861 5.308000087738037,-5.355999946594238 C6.254000186920166,-4.420000076293945 6.7769999504089355,-3.1730000972747803 6.7829999923706055,-1.843000054359436 C6.7829999923706055,-1.843000054359436 6.801000118255615,1.7740000486373901 6.801000118255615,1.7740000486373901 C6.806000232696533,3.1080000400543213 6.294000148773193,4.359000205993652 5.360000133514404,5.304999828338623 C4.421999931335449,6.249000072479248 3.177000045776367,6.77400016784668 1.8450000286102295,6.7789998054504395 C1.8450000286102295,6.7789998054504395 -1.774999976158142,6.796999931335449 -1.774999976158142,6.796999931335449 C-1.774999976158142,6.795000076293945 -1.7860000133514404,6.796999931335449 -1.7970000505447388,6.796999931335449z"></path>
                </g>
                <g opacity="1" transform="matrix(1,0,0,1,17.908000946044922,74.01699829101562)">
                    <path fill="rgb(247,247,247)" fill-opacity="1"
                        d=" M-1.784999966621399,5.438000202178955 C-1.784999966621399,5.438000202178955 1.8350000381469727,5.421999931335449 1.8350000381469727,5.421999931335449 C3.8329999446868896,5.410999774932861 5.448999881744385,3.7829999923706055 5.438000202178955,1.7829999923706055 C5.438000202178955,1.7829999923706055 5.419000148773193,-1.8370000123977661 5.419000148773193,-1.8370000123977661 C5.4120001792907715,-3.8350000381469727 3.7839999198913574,-5.447999954223633 1.7860000133514404,-5.439000129699707 C1.7860000133514404,-5.439000129699707 -1.8350000381469727,-5.423999786376953 -1.8350000381469727,-5.423999786376953 C-3.8350000381469727,-5.413000106811523 -5.447999954223633,-3.7860000133514404 -5.439000129699707,-1.784999966621399 C-5.439000129699707,-1.784999966621399 -5.422999858856201,1.8359999656677246 -5.422999858856201,1.8359999656677246 C-5.413000106811523,3.8340001106262207 -3.7850000858306885,5.448999881744385 -1.784999966621399,5.438000202178955z"></path>
                </g>
                <g opacity="1" transform="matrix(1,0,0,1,17.906999588012695,74.01699829101562)">
                    <path fill="rgb(217,217,217)" fill-opacity="1"
                        d=" M1.8009999990463257,-4.081999778747559 C1.8009999990463257,-4.081999778747559 1.7879999876022339,-4.081999778747559 1.7879999876022339,-4.081999778747559 C1.7879999876022339,-4.081999778747559 -1.8279999494552612,-4.064000129699707 -1.8279999494552612,-4.064000129699707 C-2.433000087738037,-4.059999942779541 -2.999000072479248,-3.822999954223633 -3.427000045776367,-3.3940000534057617 C-3.8519999980926514,-2.9649999141693115 -4.086999893188477,-2.3929998874664307 -4.081999778747559,-1.7879999876022339 C-4.081999778747559,-1.7879999876022339 -4.064000129699707,1.8300000429153442 -4.064000129699707,1.8300000429153442 C-4.059999942779541,2.434999942779541 -3.822999954223633,3.000999927520752 -3.3940000534057617,3.424999952316284 C-2.9649999141693115,3.8480000495910645 -2.3970000743865967,4.163000106811523 -1.7899999618530273,4.081999778747559 C-1.7899999618530273,4.081999778747559 1.8300000429153442,4.064000129699707 1.8300000429153442,4.064000129699707 C2.434999942779541,4.059999942779541 3.000999927520752,3.822999954223633 3.424999952316284,3.3940000534057617 C3.8519999980926514,2.9649999141693115 4.085000038146973,2.3949999809265137 4.081999778747559,1.7899999618530273 C4.081999778747559,1.7899999618530273 4.064000129699707,-1.8279999494552612 4.064000129699707,-1.8279999494552612 C4.058000087738037,-2.434999942779541 3.822999954223633,-2.999000072479248 3.3940000534057617,-3.4260001182556152 C2.9690001010894775,-3.8480000495910645 2.4019999504089355,-4.081999778747559 1.8009999990463257,-4.081999778747559z M-1.8009999990463257,6.796999931335449 C-3.121999979019165,6.796999931335449 -4.363999843597412,6.284999847412109 -5.304999828338623,5.355999946594238 C-6.248000144958496,4.419000148773193 -6.7729997634887695,3.1730000972747803 -6.7789998054504395,1.840999960899353 C-6.7789998054504395,1.840999960899353 -6.796999931335449,-1.7769999504089355 -6.796999931335449,-1.7769999504089355 C-6.802000045776367,-3.1080000400543213 -6.291999816894531,-4.359000205993652 -5.354000091552734,-5.304999828338623 C-4.418000221252441,-6.248000144958496 -3.1710000038146973,-6.7729997634887695 -1.840999960899353,-6.7789998054504395 C-1.840999960899353,-6.7789998054504395 1.777999997138977,-6.796999931335449 1.777999997138977,-6.796999931335449 C1.777999997138977,-6.796999931335449 1.8009999990463257,-6.796999931335449 1.8009999990463257,-6.796999931335449 C4.533999919891357,-6.796999931335449 6.765999794006348,-4.578000068664551 6.7789998054504395,-1.840999960899353 C6.7789998054504395,-1.840999960899353 6.796999931335449,1.777999997138977 6.796999931335449,1.777999997138977 C6.802000045776367,3.109999895095825 6.289999961853027,4.361000061035156 5.355999946594238,5.304999828338623 C4.418000221252441,6.25 3.1730000972747803,6.7729997634887695 1.840999960899353,6.7789998054504395 C1.840999960899353,6.7789998054504395 -1.7790000438690186,6.796999931335449 -1.7790000438690186,6.796999931335449 C-1.7790000438690186,6.796999931335449 -1.8009999990463257,6.796999931335449 -1.8009999990463257,6.796999931335449z"></path>
                </g>
                <g opacity="1" transform="matrix(1,0,0,1,17.908000946044922,95.73999786376953)">
                    <path fill="rgb(247,247,247)" fill-opacity="1"
                        d=" M-1.784999966621399,5.439000129699707 C-1.784999966621399,5.439000129699707 1.8350000381469727,5.421999931335449 1.8350000381469727,5.421999931335449 C3.8329999446868896,5.413000106811523 5.448999881744385,3.7839999198913574 5.438000202178955,1.784000039100647 C5.438000202178955,1.784000039100647 5.419000148773193,-1.8380000591278076 5.419000148773193,-1.8380000591278076 C5.4120001792907715,-3.8359999656677246 3.7839999198913574,-5.447999954223633 1.7860000133514404,-5.439000129699707 C1.7860000133514404,-5.439000129699707 -1.8350000381469727,-5.421999931335449 -1.8350000381469727,-5.421999931335449 C-3.8350000381469727,-5.413000106811523 -5.447999954223633,-3.7850000858306885 -5.439000129699707,-1.784999966621399 C-5.439000129699707,-1.784999966621399 -5.422999858856201,1.8350000381469727 -5.422999858856201,1.8350000381469727 C-5.413000106811523,3.8340001106262207 -3.7850000858306885,5.447999954223633 -1.784999966621399,5.439000129699707z"></path>
                </g>
                <g opacity="1" transform="matrix(1,0,0,1,17.902999877929688,95.73999786376953)">
                    <path fill="rgb(217,217,217)" fill-opacity="1"
                        d=" M1.809000015258789,-4.079999923706055 C1.809000015258789,-4.079999923706055 1.7960000038146973,-4.079999923706055 1.7960000038146973,-4.079999923706055 C1.7960000038146973,-4.079999923706055 -1.8279999494552612,-4.065000057220459 -1.8279999494552612,-4.065000057220459 C-3.071000099182129,-4.058000087738037 -4.083000183105469,-3.0369999408721924 -4.078000068664551,-1.7879999876022339 C-4.078000068664551,-1.7879999876022339 -4.059999942779541,1.8300000429153442 -4.059999942779541,1.8300000429153442 C-4.056000232696533,2.434999942779541 -3.819000005722046,3.000999927520752 -3.390000104904175,3.424999952316284 C-2.9630000591278076,3.8469998836517334 -2.3959999084472656,4.079999923706055 -1.7970000505447388,4.079999923706055 C-1.7970000505447388,4.079999923706055 -1.7860000133514404,4.079999923706055 -1.7860000133514404,4.079999923706055 C-1.7860000133514404,4.079999923706055 1.8339999914169312,4.064000129699707 1.8339999914169312,4.064000129699707 C2.438999891281128,4.059999942779541 3.005000114440918,3.822999954223633 3.430999994277954,3.3940000534057617 C3.8559999465942383,2.9649999141693115 4.089000225067139,2.3949999809265137 4.085999965667725,1.7899999618530273 C4.085999965667725,1.7899999618530273 4.067999839782715,-1.8279999494552612 4.067999839782715,-1.8279999494552612 C4.061999797821045,-2.433000087738037 3.8269999027252197,-3.000999927520752 3.3980000019073486,-3.4260001182556152 C2.9730000495910645,-3.8480000495910645 2.4079999923706055,-4.079999923706055 1.809000015258789,-4.079999923706055z M-1.7970000505447388,6.795000076293945 C-3.118000030517578,6.795000076293945 -4.360000133514404,6.2870001792907715 -5.301000118255615,5.355999946594238 C-6.24399995803833,4.419000148773193 -6.769000053405762,3.1730000972747803 -6.775000095367432,1.840999960899353 C-6.775000095367432,1.840999960899353 -6.793000221252441,-1.7769999504089355 -6.793000221252441,-1.7769999504089355 C-6.806000232696533,-4.521999835968018 -4.580999851226807,-6.763999938964844 -1.8389999866485596,-6.781000137329102 C-1.8389999866485596,-6.781000137329102 1.7829999923706055,-6.795000076293945 1.7829999923706055,-6.795000076293945 C3.0810000896453857,-6.758999824523926 4.36299991607666,-6.289999961853027 5.308000087738037,-5.355999946594238 C6.254000186920166,-4.418000221252441 6.7769999504089355,-3.1710000038146973 6.7829999923706055,-1.840999960899353 C6.7829999923706055,-1.840999960899353 6.801000118255615,1.777999997138977 6.801000118255615,1.777999997138977 C6.806000232696533,3.1080000400543213 6.296000003814697,4.359000205993652 5.360000133514404,5.304999828338623 C4.421999931335449,6.25 3.177000045776367,6.7729997634887695 1.847000002861023,6.7789998054504395 C1.847000002861023,6.7789998054504395 -1.7740000486373901,6.795000076293945 -1.7740000486373901,6.795000076293945 C-1.7740000486373901,6.793000221252441 -1.7860000133514404,6.795000076293945 -1.7970000505447388,6.795000076293945z"></path>
                </g>
            </g>
            <g style="display: block;" transform="matrix(1,0,0,1,108.31199645996094,64)" opacity="1">
                <g opacity="1" transform="matrix(1,0,0,1,0,0)">
                    <path stroke-linecap="round" stroke-linejoin="miter" fill-opacity="0"
                        stroke-miterlimit="4" stroke="rgb(217,217,217)" stroke-opacity="1"
                        stroke-width="2.5"
                        d=" M-14.187999725341797,-29.625 C-14.187999725341797,-29.625 7,-29.625 7,-29.625"></path>
                </g>
                <g opacity="1" transform="matrix(1,0,0,1,0,0)">
                    <path stroke-linecap="round" stroke-linejoin="miter" fill-opacity="0"
                        stroke-miterlimit="4" stroke="rgb(217,217,217)" stroke-opacity="1"
                        stroke-width="2.5"
                        d=" M12.187999725341797,-29.687999725341797 C12.187999725341797,-29.687999725341797 30.812000274658203,-29.687999725341797 30.812000274658203,-29.687999725341797"></path>
                </g>
            </g>
            <g style="display: block;" transform="matrix(1,0,0,1,108.625,64)" opacity="1">
                <g opacity="1" transform="matrix(1,0,0,1,0,0)">
                    <path stroke-linecap="round" stroke-linejoin="miter" fill-opacity="0"
                        stroke-miterlimit="4" stroke="rgb(217,217,217)" stroke-opacity="1"
                        stroke-width="2.5" d=" M-14.5,-21.625 C-13.75,-21.625 -2,-21.625 -2,-21.625"></path>
                </g>
                <g opacity="1" transform="matrix(1,0,0,1,0,0)">
                    <path stroke-linecap="round" stroke-linejoin="miter" fill-opacity="0"
                        stroke-miterlimit="4" stroke="rgb(217,217,217)" stroke-opacity="1"
                        stroke-width="2.5"
                        d=" M3,-21.562000274658203 C3,-21.562000274658203 18.062000274658203,-21.562000274658203 18.062000274658203,-21.562000274658203"></path>
                </g>
            </g>
            <g style="display: block;" transform="matrix(1,0,0,1,108.75,64)" opacity="1">
                <g opacity="1" transform="matrix(1,0,0,1,0,0)">
                    <path stroke-linecap="round" stroke-linejoin="miter" fill-opacity="0"
                        stroke-miterlimit="4" stroke="rgb(217,217,217)" stroke-opacity="1"
                        stroke-width="2.5" d=" M-14.625,-8 C-14.625,-8 -4.5,-8 -4.5,-8"></path>
                </g>
                <g opacity="1" transform="matrix(1,0,0,1,0,0)">
                    <path stroke-linecap="round" stroke-linejoin="round" fill-opacity="0"
                        stroke="rgb(217,217,217)" stroke-opacity="1" stroke-width="2.5"
                        d=" M0.5,-8.25 C0.5,-8.25 16,-8.25 16,-8.25"></path>
                </g>
            </g>
            <g style="display: block;" transform="matrix(1,0,0,1,108,64)" opacity="1">
                <g opacity="1" transform="matrix(1,0,0,1,0,0)">
                    <path stroke-linecap="round" stroke-linejoin="miter" fill-opacity="0"
                        stroke-miterlimit="4" stroke="rgb(217,217,217)" stroke-opacity="1"
                        stroke-width="2.5" d=" M-14.5,-0.125 C-14.5,-0.125 4,-0.125 4,-0.125"></path>
                </g>
            </g>
            <g style="display: block;" transform="matrix(1,0,0,1,108,64)" opacity="1">
                <g opacity="1" transform="matrix(1,0,0,1,0,0)">
                    <path stroke-linecap="round" stroke-linejoin="miter" fill-opacity="0"
                        stroke-miterlimit="4" stroke="rgb(217,217,217)" stroke-opacity="1"
                        stroke-width="2.5"
                        d=" M-14.375,13.375 C-14.375,13.375 6.875,13.375 6.875,13.375"></path>
                </g>
            </g>
            <g style="display: block;" transform="matrix(1,0,0,1,108,64)" opacity="1">
                <g opacity="1" transform="matrix(1,0,0,1,0,0)">
                    <path stroke-linecap="round" stroke-linejoin="miter" fill-opacity="0"
                        stroke-miterlimit="4" stroke="rgb(217,217,217)" stroke-opacity="1"
                        stroke-width="2.5" d=" M-14.5,21.5 C-14.5,21.5 -0.125,21.5 -0.125,21.5"></path>
                </g>
            </g>
            <g style="display: block;" transform="matrix(1,0,0,1,108,64)" opacity="1">
                <g opacity="1" transform="matrix(1,0,0,1,0,0)">
                    <path stroke-linecap="round" stroke-linejoin="miter" fill-opacity="0"
                        stroke-miterlimit="4" stroke="rgb(217,217,217)" stroke-opacity="1"
                        stroke-width="2.5" d=" M-14.25,35.25 C-14.25,35.25 6.875,35.25 6.875,35.25"></path>
                </g>
            </g>
            <g style="display: block;" transform="matrix(1,0,0,1,108,64)" opacity="1">
                <g opacity="1" transform="matrix(1,0,0,1,0,0)">
                    <path stroke-linecap="round" stroke-linejoin="miter" fill-opacity="0"
                        stroke-miterlimit="4" stroke="rgb(217,217,217)" stroke-opacity="1"
                        stroke-width="2.5" d=" M-14.25,43.25 C-14.25,43.25 0,43.25 0,43.25"></path>
                </g>
            </g>
        </g>
    </g>
</svg>